<?xml version="1.0" standalone="no"?>
<!DOCTYPE svg PUBLIC "-//W3C//DTD SVG 20010904//EN"
 "http://www.w3.org/TR/2001/REC-SVG-20010904/DTD/svg10.dtd">
<svg version="1.0" xmlns="http://www.w3.org/2000/svg"
 width="700.000000pt" height="700.000000pt" viewBox="0 0 700.000000 700.000000"
 preserveAspectRatio="xMidYMid meet">
<metadata>
Created by potrace 1.11, written by Peter Selinger 2001-2013
</metadata>
<g transform="translate(0.000000,700.000000) scale(0.100000,-0.100000)"
fill="#000000" stroke="none">
<path d="M3228 5935 c-2 -1 -24 -5 -49 -8 -296 -35 -596 -258 -716 -532 -55
-126 -75 -232 -76 -395 -2 -481 193 -775 741 -1119 62 -39 114 -71 116 -71 9
0 311 -169 370 -207 234 -150 470 -392 562 -574 47 -94 65 -165 71 -285 13
-241 -89 -496 -272 -680 -302 -305 -741 -383 -1120 -199 -81 39 -201 121 -253
173 -18 18 -125 146 -140 167 -73 105 -144 293 -166 440 -13 87 -14 279 -1
340 27 132 52 210 102 315 30 65 134 236 152 250 3 3 19 23 36 45 16 22 68 79
116 127 95 96 80 95 -48 -1 -277 -209 -449 -513 -480 -845 -17 -184 -1 -348
47 -496 103 -312 335 -576 636 -725 61 -30 117 -55 124 -55 7 0 11 -3 7 -6 -5
-5 -27 -11 -98 -29 -43 -10 -178 -80 -228 -117 -81 -61 -156 -143 -201 -221
-22 -38 -40 -73 -40 -79 0 -5 22 10 49 35 58 52 171 110 256 131 165 42 311
40 540 -8 48 -10 155 -48 286 -101 258 -105 383 -136 551 -140 248 -6 435 88
564 282 40 61 109 220 117 272 3 16 8 36 12 43 7 13 -8 -4 -46 -57 -55 -75
-175 -135 -311 -154 -58 -8 -277 -6 -323 3 -11 2 -40 7 -65 11 -47 7 -283 62
-310 71 -8 3 28 18 80 33 183 52 349 137 497 253 374 295 514 565 515 993 1
325 -126 620 -361 839 -25 23 -52 48 -61 56 -57 54 -249 185 -395 270 -178
104 -234 133 -565 297 -337 166 -445 231 -534 319 -84 83 -153 221 -174 347
-9 57 -8 232 1 286 23 127 98 263 202 366 129 128 281 194 457 200 87 2 118
-1 206 -19 86 -18 217 -85 278 -141 6 -5 27 -24 47 -42 52 -45 121 -139 163
-222 19 -39 37 -76 38 -83 1 -7 4 -17 7 -23 4 -5 10 -23 14 -40 4 -16 9 -39
12 -50 13 -52 11 -217 -3 -286 -19 -91 -64 -208 -104 -274 l-30 -50 53 57 c62
67 120 176 146 279 25 96 21 269 -7 379 -63 238 -216 427 -444 548 -83 44
-203 84 -293 97 -42 7 -252 15 -257 10z"/>
</g>
</svg>
