<svg clip-rule="evenodd" fill-rule="evenodd" stroke-linejoin="round" stroke-miterlimit="2" viewBox="0 0 500 165" xmlns="http://www.w3.org/2000/svg"><g fill-rule="nonzero"><path d="m0 94.727c.791-.525 1.566-1.144 2.308-1.864 7.228-7.022 11.493-13.078 11.875-25.919.308-10.428-4.183-19.412-9.398-24.781-5.985-6.163-14.948-11.374-26.227-17.244-8.313-4.322-13.338-5.998-18.792-9.72-1.942-1.326-3.75-2.878-5.125-4.787-2.546-3.541-3.705-7.712-3.898-12.584-.02-4.5 1.196-10.043 5.821-15.038 9.41-10.163 26.604-8.929 34.642 4.758s-1.463 25.899-1.463 25.899 11.151-8.532 4.933-24.924c-6.218-16.391-30.987-23.493-46.476-8.212-9.597 9.47-8.369 22.088-6.892 28.504.954 4.911 3.086 8.858 6.273 12.8 4.44 5.497 12.605 11.376 24.008 17.244 9.478 4.869 15.735 10.882 19.637 15.813 3.899 4.934 5.479 9.433 5.376 15.164-.007.472-.036.949-.075 1.429-.714 6.212-3.78 16.783-15.909 23.082-17.022 8.837-38.74-.668-42.807-22.272-4.066-21.602 15.196-36.3 15.196-36.3s-19.691 9.131-19.262 33.405c.269 15.242 10.663 28.46 25.035 33.655-14.202 2.886-17.696 14.043-17.696 14.043s9.972-13.212 34.64-2.293c34.138 15.112 37.372-15.027 37.372-15.027s-2.115 13.478-31.692 5.023c-.307-.086-.608-.166-.911-.25 2.238-.459 4.497-1.108 6.76-1.967 5.222-1.984 9.398-4.641 12.747-7.637" fill="#000" transform="translate(103.307 31.9009)"/><path d="m0 14.577c-13.189 5.139-28.046-1.39-33.185-14.58 13.19-5.136 28.047 1.391 33.185 14.58" fill="#dd3686" transform="translate(36.585 64.9586)"/><path d="m0-10.549c-10.391-4.564-22.515.157-27.079 10.548 10.391 4.565 22.514-.157 27.079-10.548" fill="#f398c0" transform="translate(36.25 96.6076)"/><path d="m0 27.079c-10.39-4.565-15.112-16.688-10.547-27.079 10.39 4.565 15.112 16.688 10.547 27.079" fill="#f398c0" transform="translate(41.3369 47.4005)"/><g fill="#000"><path d="m0 57.334c-.68 2.951-1.532 5.644-2.553 8.081-1.02 2.44-2.381 4.538-4.082 6.294-1.701 1.76-3.828 3.119-6.38 4.083-2.552.963-5.588 1.446-9.102 1.446-5.558 0-9.952-1.333-13.184-3.997-3.233-2.664-4.849-6.946-4.849-12.844v-48.487h-11.058l.68-5.104c5.216-1.021 9.413-3.998 12.59-8.932 3.173-4.934 5.443-10.632 6.805-17.097l5.274-.681v25.179h13.439c1.587 0 3.034-.123 4.338-.372 1.304-.248 2.467-.521 3.488-.819v7.826h-21.265v44.743c0 1.361.056 2.696.17 3.998.111 1.306.425 2.526.935 3.658.511 1.135 1.332 2.042 2.467 2.722 1.132.681 2.722 1.022 4.764 1.022 3.288 0 6.236-1.134 8.847-3.404 2.607-2.267 4.195-5.159 4.763-8.676z" transform="translate(175.035 54.9257)"/><path d="m0-75.536c-1.59-4.423-4.822-6.635-9.698-6.635v-5.104h35.046v5.104h-3.402c-4.197 0-6.295 1.305-6.295 3.913.111.341.226.795.341 1.361.111.569.226 1.22.339 1.957.113.738.282 1.56.511 2.467l17.523 37.598 13.611-35.047c.451-2.153.791-3.769 1.02-4.848.226-1.077.34-1.842.34-2.297 0-3.403-3.687-5.104-11.059-5.104v-5.104h29.092v5.104c-4.763 0-7.995 1.93-9.697 5.784l-20.585 51.72c-.568 1.134-1.361 2.806-2.382 5.018-1.02 2.212-2.212 4.678-3.572 7.4-1.362 2.724-2.893 5.501-4.594 8.337-1.701 2.833-3.631 5.414-5.784 7.741-2.156 2.323-4.482 4.224-6.975 5.698-2.496 1.473-5.163 2.212-7.996 2.212-6.013 0-9.017-2.781-9.017-8.336 0-5.672 2.153-8.506 6.464-8.506 2.042 0 3.403.481 4.083 1.446.682.963 1.163 2.013 1.447 3.148.282 1.132.622 2.182 1.02 3.147.397.962 1.277 1.446 2.637 1.446.793 0 1.872-.739 3.233-2.212 1.362-1.474 2.748-3.317 4.168-5.529 1.417-2.212 2.749-4.652 3.998-7.316 1.247-2.666 2.153-5.247 2.722-7.74z" transform="translate(192.218 147.645)"/><path d="m0 117.217v-5.104c7.712 0 11.568-2.608 11.568-7.825v-86.255c0-5.556-4.368-8.336-13.1-8.336v-4.593l27.391-5.104v104.968c0 4.764 4.308 7.145 12.93 7.145v5.104z" transform="translate(260.437 12.3953)"/><path d="m0-17.353c4.65 0 6.975-2.383 6.975-7.146-.338-4.309-1.786-8.081-4.337-11.313-2.551-3.233-6.269-4.849-11.143-4.849-2.611 0-4.993.596-7.146 1.787-2.156 1.19-3.998 2.78-5.529 4.763-1.531 1.986-2.696 4.253-3.488 6.805-.795 2.552-1.191 5.189-1.191 7.911 0 1.361 1.247 2.042 3.743 2.042zm23.139 26.54c-2.952 6.353-6.92 11.286-11.91 14.801-4.993 3.514-10.888 5.274-17.692 5.274-5.673 0-10.664-.966-14.973-2.892-4.312-1.928-7.91-4.535-10.801-7.827-2.893-3.287-5.079-7.201-6.55-11.738-1.477-4.535-2.214-9.357-2.214-14.462 0-5.103.793-9.978 2.383-14.631 1.587-4.648 3.827-8.788 6.721-12.419 2.892-3.628 6.378-6.52 10.461-8.676 4.083-2.153 8.619-3.232 13.61-3.232 3.063 0 6.265.369 9.614 1.106 3.344.739 6.489 2.185 9.441 4.338 2.949 2.155 5.5 5.247 7.655 9.272 2.155 4.026 3.573 9.33 4.255 15.907 0 1.361-.172 2.611-.51 3.743h-45.256c-2.154 0-3.232.85-3.232 2.551 0 4.083.568 7.941 1.701 11.57 1.133 3.63 2.722 6.804 4.764 9.526 2.041 2.723 4.536 4.849 7.485 6.381 2.948 1.53 6.236 2.296 9.867 2.296 4.765 0 8.875-1.362 12.334-4.083 3.46-2.722 6.492-5.897 9.104-9.528z" transform="translate(349.752 103.583)"/><path d="m0 17.434c-1.42 6.284-3.603 11.75-6.55 16.391-2.95 4.645-6.692 8.296-11.227 10.958-4.537 2.66-9.983 3.989-16.332 3.989-6.466 0-12.08-1.358-16.843-4.075-4.765-2.716-8.676-6.454-11.739-11.209-3.062-4.756-5.332-10.363-6.807-16.817-1.474-6.454-2.21-13.419-2.21-20.894 0-6.792.597-13.301 1.785-19.53 1.192-6.228 3.175-11.72 5.955-16.475 2.78-4.756 6.405-8.549 10.89-11.38 4.477-2.831 9.951-4.248 16.417-4.248 7.031 0 13.013 1.501 17.946 4.5 4.934 3.001 8.933 6.965 11.996 11.891 3.061 4.925 5.299 10.558 6.719 16.9 1.416 6.343 2.126 12.909 2.126 19.703 0 7.246-.71 14.012-2.126 20.296m17.268-44.539c-2.836-7.031-6.778-13.126-11.825-18.289-5.047-5.159-11.057-9.186-18.033-12.079-6.975-2.891-14.602-4.338-22.883-4.338-8.392 0-16.02 1.675-22.88 5.019-6.864 3.347-12.734 7.77-17.608 13.27-4.878 5.503-8.62 11.797-11.229 18.884-2.61 7.09-3.913 14.376-3.913 21.862 0 8.054 1.388 15.625 4.168 22.711 2.779 7.09 6.635 13.27 11.569 18.545 4.933 5.274 10.804 9.415 17.608 12.419 1.959.864 3.977 1.59 6.039 2.206-12.064 3.586-15.139 13.363-15.139 13.363s9.936-13.166 34.52-2.284c34.023 15.061 37.244-14.977 37.244-14.977s-2.066 13.033-30.346 5.342c4.761-.833 9.249-2.266 13.447-4.331 7.031-3.459 13.015-7.996 17.949-13.61s8.761-11.994 11.483-19.14c2.721-7.144 4.083-14.346 4.083-21.605 0-8.278-1.42-15.934-4.254-22.968" transform="translate(476.07 76.7574)"/></g></g></svg>